<!--?xml version="1.0" encoding="utf-8"?-->
<!-- Generator: Adobe Illustrator 16.0.0, SVG Export Plug-In . SVG Version: 6.00 Build 0)  -->

<svg version="1.1" id="Layer_1" xmlns="http://www.w3.org/2000/svg" xmlns:xlink="http://www.w3.org/1999/xlink" x="0px" y="0px" width="125px" height="118px" viewBox="0 0 125 118" enable-background="new 0 0 125 118" xml:space="preserve">
<g>
	<path fill="none" stroke="#FFFFFF" stroke-width="2" stroke-miterlimit="10" d="M20.717,8.761L20.717,13.594L
		62.884,13.594L62.884,8.761" class="WSancplN_0"></path>
	<path fill="none" stroke="#FFFFFF" stroke-width="2" stroke-miterlimit="10" d="M42.217,89.928c0,0-13.5-39.166-28.25-47.083
		c0,0,12.667-5.5,12.667-20.75h31.167c0,0-0.417,19.751,13.583,19.834C71.384,41.929,53.551,54.928,42.217,89.928z" class="WSancplN_1"></path>
	<path fill="none" stroke="#FFFFFF" stroke-width="2" stroke-miterlimit="10" d="M42.382,89.426L42.382,50.136" class="WSancplN_2"></path>
	<path fill="none" stroke="#FFFFFF" stroke-width="2" stroke-miterlimit="10" d="M35.298,43.446A7.084,7.084 0,1,1 49.465999999999994,43.446A7.084,7.084 0,1,1 35.298,43.446" class="WSancplN_3"></path>
	<path fill="none" stroke="#FFFFFF" stroke-width="2" stroke-miterlimit="10" d="M104.217,47.927c0,0,6.333,52.167-55.833,55.167
		h56.015" class="WSancplN_4"></path>
	
		<path transform="matrix(-0.7071 -0.7071 0.7071 -0.7071 148.6664 145.1441)" fill="none" stroke="#FFFFFF" stroke-width="2" stroke-miterlimit="10" width="8.691" height="8.691" d="M100.048 37.437 L108.739 37.437 L108.739 46.128 L100.048 46.128 Z" class="WSancplN_5"></path>
	
		<path transform="matrix(-0.7071 -0.7071 0.7071 -0.7071 -0.0508 206.1606)" fill="none" stroke="#FFFFFF" stroke-width="2" stroke-miterlimit="10" width="8.691" height="8.691" d="M38.326 98.745 L47.017 98.745 L47.017 107.436 L38.326 107.436 Z" class="WSancplN_6"></path>
	<path fill="none" stroke="#FFFFFF" stroke-width="2" stroke-miterlimit="10" d="M103.86099999999999,103.094A5.802,5.802 0,1,1 115.465,103.094A5.802,5.802 0,1,1 103.86099999999999,103.094" class="WSancplN_7"></path>
</g>
<style>.WSancplN_0{stroke-dasharray:52 54;stroke-dashoffset:53;animation:WSancplN_draw_0 12900ms linear 0ms infinite,WSancplN_fade 12900ms linear 0ms infinite;}.WSancplN_1{stroke-dasharray:197 199;stroke-dashoffset:198;animation:WSancplN_draw_1 12900ms linear 0ms infinite,WSancplN_fade 12900ms linear 0ms infinite;}.WSancplN_2{stroke-dasharray:40 42;stroke-dashoffset:41;animation:WSancplN_draw_2 12900ms linear 0ms infinite,WSancplN_fade 12900ms linear 0ms infinite;}.WSancplN_3{stroke-dasharray:45 47;stroke-dashoffset:46;animation:WSancplN_draw_3 12900ms linear 0ms infinite,WSancplN_fade 12900ms linear 0ms infinite;}.WSancplN_4{stroke-dasharray:146 148;stroke-dashoffset:147;animation:WSancplN_draw_4 12900ms linear 0ms infinite,WSancplN_fade 12900ms linear 0ms infinite;}.WSancplN_5{stroke-dasharray:35 37;stroke-dashoffset:36;animation:WSancplN_draw_5 12900ms linear 0ms infinite,WSancplN_fade 12900ms linear 0ms infinite;}.WSancplN_6{stroke-dasharray:35 37;stroke-dashoffset:36;animation:WSancplN_draw_6 12900ms linear 0ms infinite,WSancplN_fade 12900ms linear 0ms infinite;}.WSancplN_7{stroke-dasharray:37 39;stroke-dashoffset:38;animation:WSancplN_draw_7 12900ms linear 0ms infinite,WSancplN_fade 12900ms linear 0ms infinite;}@keyframes WSancplN_draw{100%{stroke-dashoffset:0;}}@keyframes WSancplN_fade{0%{stroke-opacity:1;}96.89922480620154%{stroke-opacity:1;}100%{stroke-opacity:0;}}@keyframes WSancplN_draw_0{0.7751937984496124%{stroke-dashoffset: 53}18.346253229974163%{ stroke-dashoffset: 0;}100%{ stroke-dashoffset: 0;}}@keyframes WSancplN_draw_1{2.0302694721299375%{stroke-dashoffset: 198}19.601328903654487%{ stroke-dashoffset: 0;}100%{ stroke-dashoffset: 0;}}@keyframes WSancplN_draw_2{3.2853451458102616%{stroke-dashoffset: 41}20.856404577334814%{ stroke-dashoffset: 0;}100%{ stroke-dashoffset: 0;}}@keyframes WSancplN_draw_3{4.540420819490587%{stroke-dashoffset: 46}22.111480251015138%{ stroke-dashoffset: 0;}100%{ stroke-dashoffset: 0;}}@keyframes WSancplN_draw_4{5.795496493170912%{stroke-dashoffset: 147}23.36655592469546%{ stroke-dashoffset: 0;}100%{ stroke-dashoffset: 0;}}@keyframes WSancplN_draw_5{7.050572166851237%{stroke-dashoffset: 36}24.62163159837579%{ stroke-dashoffset: 0;}100%{ stroke-dashoffset: 0;}}@keyframes WSancplN_draw_6{8.30564784053156%{stroke-dashoffset: 36}25.876707272056116%{ stroke-dashoffset: 0;}100%{ stroke-dashoffset: 0;}}@keyframes WSancplN_draw_7{9.560723514211885%{stroke-dashoffset: 38}27.131782945736433%{ stroke-dashoffset: 0;}100%{ stroke-dashoffset: 0;}}</style></svg>
