<!--?xml version="1.0" encoding="utf-8"?-->
<!-- Generator: Adobe Illustrator 16.0.0, SVG Export Plug-In . SVG Version: 6.00 Build 0)  -->

<svg version="1.1" id="Layer_1" xmlns="http://www.w3.org/2000/svg" xmlns:xlink="http://www.w3.org/1999/xlink" x="0px" y="0px" width="125px" height="118px" viewBox="0 0 125 118" enable-background="new 0 0 125 118" xml:space="preserve">
<path fill="none" stroke="#FFFFFF" stroke-width="2" stroke-miterlimit="10" d="M96.967,53.162c-0.31-0.373-0.775-0.61-1.299-0.61
	h-4.581c-0.274-0.141-0.649-0.394-1.069-0.816c-0.26-1.011-0.58-2.008-0.955-2.991c-0.01-0.025-0.02-0.051-0.027-0.077
	c-0.202-0.526-0.419-1.046-0.653-1.562c-0.049-0.108-0.099-0.217-0.149-0.325c-0.058-0.122-0.114-0.244-0.174-0.366
	c-0.105-0.218-0.216-0.435-0.326-0.65c-0.035-0.064-0.068-0.128-0.104-0.192c-0.101-0.189-0.202-0.377-0.308-0.564
	c-0.008-0.012-0.014-0.025-0.021-0.037c-0.041-0.783,0.07-1.34,0.187-1.677l3.207-3.208c0.66-0.66,0.66-1.73,0-2.391l-6.662-6.661
	c-0.659-0.66-1.729-0.66-2.391,0l-3.238,3.24c-0.305,0.097-0.771,0.188-1.397,0.178c-2.292-1.353-4.731-2.358-7.245-3.008
	c-0.476-0.462-0.74-0.873-0.883-1.161v-4.536c0-0.934-0.757-1.69-1.689-1.69h-9.419c-0.934,0-1.69,0.757-1.69,1.69v4.581
	c-0.141,0.273-0.388,0.645-0.806,1.062c-2.338,0.606-4.614,1.515-6.764,2.729c-0.791,0.043-1.347-0.073-1.687-0.188l-3.207-3.207
	c-0.66-0.66-1.731-0.66-2.391,0l-6.661,6.661c-0.265,0.265-0.421,0.595-0.474,0.938c-0.206,0.593-0.074,1.277,0.4,1.751l3.239,3.238
	c0.093,0.291,0.181,0.725,0.181,1.311c-0.146,0.253-0.29,0.507-0.428,0.764c-1.023,1.868-1.842,3.864-2.425,5.959
	c-0.529,0.589-1.004,0.901-1.325,1.059h-4.54c-0.934,0-1.691,0.757-1.691,1.691v9.42c0,0.604,0.318,1.133,0.794,1.43
	c0.288,0.228,0.65,0.363,1.044,0.363h4.58c0.099,0.051,0.212,0.119,0.334,0.201c0.21,0.152,0.443,0.354,0.691,0.616
	c0.629,2.396,1.564,4.665,2.762,6.769c0.04,0.781-0.07,1.334-0.185,1.67l-3.208,3.207c-0.66,0.662-0.66,1.73,0,2.392l6.661,6.661
	c0.095,0.095,0.201,0.172,0.311,0.24c0.601,0.494,1.463,0.51,2.082,0.049c0.094-0.063,0.185-0.131,0.267-0.213l3.196-3.196
	c0.31-0.095,0.772-0.181,1.392-0.167c1.56,0.902,3.187,1.641,4.858,2.22c0.527,0.187,1.063,0.356,1.605,0.513
	c0.678,0.576,1.029,1.099,1.2,1.443v4.536c0,0.935,0.757,1.69,1.691,1.69h9.42c0.352,0,0.679-0.107,0.949-0.293
	c0.58-0.269,0.983-0.854,0.983-1.535v-4.579c0.142-0.272,0.388-0.646,0.808-1.062c2.338-0.607,4.613-1.518,6.764-2.729
	c0.791-0.043,1.348,0.073,1.688,0.188l3.207,3.207c0.66,0.658,1.73,0.658,2.393,0l6.66-6.662c0.25-0.25,0.406-0.563,0.467-0.888
	c0.209-0.595,0.076-1.28-0.396-1.757l-3.238-3.238c-0.096-0.297-0.185-0.746-0.178-1.351c1.203-2.087,2.121-4.293,2.75-6.563
	c0.566-0.666,1.084-1.013,1.426-1.181h4.535c0.935,0,1.69-0.757,1.69-1.69V54.39C97.5,53.906,97.294,53.471,96.967,53.162z
	 M79.639,75.986c-6.264,6.264-15.084,8.404-23.101,6.433c-4.081-1.052-7.943-3.174-11.139-6.369
	c-0.124-0.125-0.246-0.25-0.367-0.377c-0.035-0.036-0.07-0.071-0.104-0.108c-0.132-0.139-0.262-0.277-0.39-0.42
	c-0.021-0.021-0.041-0.047-0.062-0.068c-0.225-0.25-0.443-0.506-0.656-0.764c-0.071-0.086-0.141-0.172-0.21-0.26
	c-0.135-0.166-0.267-0.337-0.397-0.508c-0.098-0.129-0.195-0.259-0.291-0.389c-0.081-0.111-0.16-0.223-0.239-0.334
	c-0.109-0.155-0.216-0.313-0.322-0.469c-0.081-0.123-0.161-0.244-0.24-0.367c-0.101-0.157-0.199-0.313-0.296-0.473
	c-0.054-0.089-0.108-0.176-0.16-0.265c-0.13-0.22-0.256-0.438-0.378-0.66c-0.042-0.075-0.083-0.151-0.124-0.229
	c-0.114-0.211-0.225-0.424-0.333-0.639c-0.018-0.037-0.038-0.072-0.056-0.109c-0.124-0.25-0.241-0.504-0.356-0.758
	c-0.025-0.058-0.052-0.115-0.077-0.172c-0.115-0.261-0.226-0.521-0.331-0.785c-0.012-0.027-0.022-0.058-0.034-0.086
	c-0.105-0.269-0.208-0.537-0.304-0.808c-0.006-0.017-0.012-0.032-0.017-0.047c-0.102-0.286-0.196-0.573-0.287-0.862
	c-0.007-0.023-0.014-0.048-0.022-0.07c-0.839-2.723-1.192-5.563-1.057-8.383c0-0.016,0.001-0.033,0.002-0.049
	c0.012-0.244,0.03-0.488,0.05-0.732c0.013-0.153,0.026-0.306,0.042-0.458c0.002-0.027,0.006-0.055,0.008-0.083
	c0.026-0.245,0.057-0.488,0.089-0.73c0.73-5.017,3.023-9.851,6.885-13.711c5.661-5.662,13.413-7.954,20.77-6.886
	c0.047,0.007,0.094,0.014,0.141,0.021c0.15,0.022,0.304,0.048,0.453,0.074c0.981,0.171,1.942,0.401,2.879,0.686
	c0.037,0.011,0.074,0.022,0.109,0.034c0.146,0.045,0.295,0.094,0.44,0.143c3.452,1.162,6.696,3.115,9.446,5.865
	c1.188,1.188,2.228,2.468,3.119,3.817c2.493,3.827,3.944,8.396,3.944,13.306c0,4.42-1.177,8.565-3.231,12.14
	C82.408,72.83,81.143,74.482,79.639,75.986z" class="wHDpWHyO_0"></path>
<path fill="none" stroke="#FFFFFF" stroke-width="2" stroke-miterlimit="10" d="M37.196,19.524
	c-0.129-0.156-0.325-0.255-0.543-0.255h-1.915c-0.115-0.059-0.272-0.165-0.447-0.341c-0.108-0.422-0.243-0.839-0.399-1.25
	c-0.004-0.011-0.008-0.021-0.012-0.032c-0.084-0.22-0.175-0.438-0.273-0.653c-0.021-0.045-0.042-0.091-0.063-0.136
	c-0.024-0.051-0.048-0.102-0.073-0.153c-0.044-0.091-0.09-0.182-0.136-0.272c-0.014-0.027-0.029-0.054-0.043-0.08
	c-0.042-0.079-0.084-0.158-0.128-0.236c-0.003-0.005-0.006-0.011-0.009-0.016c-0.017-0.328,0.029-0.56,0.077-0.701l1.341-1.341
	c0.276-0.276,0.276-0.724,0-1l-2.785-2.785c-0.276-0.276-0.724-0.276-1,0l-1.354,1.354c-0.127,0.041-0.321,0.079-0.584,0.075
	c-0.958-0.565-1.979-0.986-3.029-1.258c-0.199-0.193-0.31-0.365-0.369-0.485V8.063c0-0.39-0.316-0.707-0.707-0.707h-3.938
	c-0.391,0-0.707,0.316-0.707,0.707v1.915c-0.059,0.114-0.162,0.27-0.337,0.444c-0.978,0.254-1.929,0.634-2.828,1.142
	c-0.331,0.018-0.563-0.031-0.705-0.079l-1.341-1.341c-0.276-0.276-0.724-0.276-1,0l-2.785,2.785
	c-0.111,0.11-0.176,0.249-0.198,0.392c-0.086,0.248-0.031,0.534,0.167,0.732l1.354,1.354c0.039,0.122,0.076,0.303,0.076,0.548
	c-0.062,0.106-0.121,0.212-0.179,0.319c-0.428,0.781-0.771,1.615-1.014,2.491c-0.221,0.247-0.42,0.377-0.554,0.443H8.86
	c-0.391,0-0.707,0.316-0.707,0.707v3.938c0,0.252,0.133,0.474,0.332,0.598c0.12,0.095,0.271,0.152,0.437,0.152h1.915
	c0.041,0.021,0.088,0.049,0.14,0.083c0.088,0.064,0.185,0.148,0.289,0.258c0.263,1.001,0.654,1.951,1.155,2.83
	c0.017,0.326-0.03,0.558-0.077,0.699l-1.341,1.341c-0.276,0.276-0.276,0.724,0,1l2.785,2.785c0.04,0.04,0.084,0.072,0.13,0.101
	c0.251,0.207,0.611,0.213,0.87,0.021c0.039-0.026,0.077-0.055,0.112-0.089l1.336-1.336c0.13-0.04,0.323-0.075,0.582-0.07
	c0.652,0.377,1.333,0.686,2.031,0.928c0.221,0.078,0.445,0.149,0.671,0.214c0.284,0.241,0.43,0.459,0.501,0.604v1.896
	c0,0.39,0.316,0.707,0.707,0.707h3.938c0.147,0,0.284-0.045,0.397-0.122c0.243-0.112,0.412-0.357,0.412-0.642v-1.915
	c0.059-0.114,0.162-0.27,0.337-0.444c0.978-0.253,1.929-0.633,2.828-1.141c0.331-0.018,0.563,0.031,0.705,0.079l1.341,1.341
	c0.276,0.276,0.723,0.276,1,0l2.785-2.785c0.105-0.105,0.17-0.235,0.195-0.371c0.087-0.249,0.033-0.536-0.166-0.735l-1.354-1.354
	c-0.04-0.124-0.077-0.312-0.075-0.564c0.504-0.873,0.887-1.795,1.149-2.744c0.238-0.278,0.454-0.423,0.597-0.493h1.896
	c0.391,0,0.707-0.316,0.707-0.707V20.04C37.419,19.835,37.333,19.653,37.196,19.524z M25.85,24.994
	c-1.123,1.123-2.704,1.507-4.141,1.153c-0.731-0.188-1.424-0.569-1.997-1.142c-0.022-0.022-0.044-0.045-0.065-0.067
	c-0.007-0.007-0.013-0.013-0.019-0.02c-0.023-0.025-0.047-0.05-0.07-0.075c-0.003-0.004-0.007-0.008-0.011-0.012
	c-0.04-0.045-0.079-0.091-0.117-0.137c-0.013-0.015-0.025-0.031-0.038-0.046c-0.024-0.03-0.048-0.061-0.071-0.091
	c-0.018-0.023-0.035-0.046-0.052-0.07c-0.014-0.02-0.028-0.04-0.043-0.06c-0.019-0.028-0.039-0.056-0.057-0.084
	c-0.015-0.022-0.029-0.044-0.043-0.066c-0.018-0.028-0.036-0.056-0.053-0.084c-0.01-0.016-0.02-0.032-0.029-0.047
	c-0.023-0.039-0.046-0.079-0.068-0.118c-0.008-0.014-0.015-0.028-0.022-0.042c-0.021-0.038-0.041-0.076-0.06-0.114
	c-0.003-0.006-0.007-0.013-0.01-0.02c-0.022-0.045-0.043-0.09-0.064-0.136c-0.005-0.01-0.009-0.02-0.014-0.031
	c-0.021-0.047-0.04-0.093-0.059-0.14c-0.002-0.005-0.004-0.011-0.006-0.016c-0.019-0.048-0.037-0.096-0.055-0.145
	c-0.001-0.003-0.002-0.005-0.003-0.009c-0.018-0.051-0.035-0.102-0.051-0.154c-0.001-0.004-0.003-0.008-0.004-0.013
	c-0.15-0.488-0.213-0.997-0.189-1.503c0-0.003,0-0.006,0-0.008c0.002-0.044,0.005-0.088,0.009-0.131
	c0.002-0.028,0.005-0.055,0.007-0.083c0-0.005,0.001-0.01,0.001-0.014c0.005-0.044,0.01-0.088,0.016-0.131
	c0.131-0.899,0.542-1.766,1.234-2.458c1.015-1.015,2.404-1.426,3.723-1.235c0.008,0.001,0.017,0.003,0.025,0.004
	c0.027,0.004,0.054,0.009,0.082,0.013c0.175,0.031,0.348,0.072,0.516,0.124c0.007,0.002,0.014,0.004,0.02,0.006
	c0.026,0.008,0.053,0.017,0.079,0.026c0.619,0.208,1.2,0.558,1.693,1.051c0.212,0.213,0.399,0.443,0.559,0.685
	c0.447,0.686,0.708,1.505,0.708,2.385c0,0.792-0.211,1.535-0.58,2.176C26.347,24.428,26.12,24.724,25.85,24.994z" class="wHDpWHyO_1"></path>
<path fill="none" stroke="#FFFFFF" stroke-width="2" stroke-miterlimit="10" d="M116.368,93.98c-0.13-0.155-0.325-0.254-0.543-0.254
	h-1.915c-0.115-0.061-0.271-0.166-0.447-0.343c-0.107-0.422-0.242-0.839-0.398-1.25c-0.004-0.011-0.008-0.021-0.012-0.03
	c-0.085-0.222-0.176-0.438-0.273-0.653c-0.021-0.046-0.043-0.091-0.063-0.136c-0.023-0.051-0.048-0.104-0.072-0.153
	c-0.043-0.091-0.09-0.183-0.137-0.272c-0.014-0.027-0.027-0.054-0.043-0.08c-0.042-0.078-0.084-0.158-0.128-0.236
	c-0.003-0.004-0.006-0.01-0.009-0.016c-0.018-0.328,0.027-0.56,0.076-0.701l1.342-1.34c0.275-0.277,0.275-0.725,0-1l-2.785-2.785
	c-0.275-0.275-0.725-0.275-1,0l-1.354,1.354c-0.127,0.041-0.32,0.079-0.584,0.075c-0.957-0.564-1.979-0.986-3.028-1.26
	c-0.199-0.191-0.31-0.363-0.369-0.483V82.52c0-0.39-0.315-0.707-0.707-0.707H99.98c-0.391,0-0.707,0.316-0.707,0.707v1.916
	c-0.059,0.113-0.162,0.271-0.336,0.443c-0.979,0.254-1.93,0.635-2.828,1.143c-0.332,0.019-0.563-0.031-0.705-0.08l-1.342-1.34
	c-0.274-0.275-0.724-0.275-1,0l-2.785,2.785c-0.109,0.109-0.176,0.248-0.196,0.391c-0.086,0.248-0.031,0.535,0.167,0.732
	l1.354,1.354c0.039,0.123,0.075,0.305,0.075,0.55c-0.062,0.104-0.12,0.212-0.179,0.317c-0.428,0.781-0.771,1.615-1.014,2.492
	c-0.223,0.246-0.42,0.377-0.555,0.442h-1.896c-0.391,0-0.706,0.315-0.706,0.707v3.938c0,0.252,0.133,0.474,0.331,0.598
	c0.121,0.095,0.271,0.152,0.438,0.152h1.915c0.041,0.021,0.089,0.049,0.14,0.082c0.088,0.063,0.187,0.147,0.289,0.258
	c0.265,1.002,0.654,1.951,1.156,2.83c0.016,0.326-0.031,0.559-0.078,0.699l-1.341,1.342c-0.276,0.274-0.276,0.724,0,1l2.785,2.785
	c0.04,0.039,0.084,0.07,0.13,0.1c0.251,0.207,0.611,0.214,0.87,0.021c0.039-0.025,0.077-0.056,0.112-0.09l1.336-1.336
	c0.13-0.04,0.322-0.074,0.582-0.068c0.652,0.377,1.332,0.686,2.031,0.928c0.221,0.078,0.443,0.148,0.67,0.214
	c0.285,0.241,0.431,0.459,0.502,0.604v1.896c0,0.39,0.314,0.707,0.707,0.707h3.938c0.146,0,0.284-0.046,0.396-0.122
	c0.244-0.112,0.412-0.357,0.412-0.643v-1.914c0.06-0.115,0.162-0.271,0.338-0.444c0.978-0.253,1.929-0.634,2.828-1.142
	c0.33-0.019,0.563,0.03,0.705,0.08l1.34,1.34c0.275,0.275,0.724,0.275,1,0l2.785-2.785c0.104-0.104,0.17-0.234,0.194-0.37
	c0.087-0.249,0.033-0.536-0.166-0.735l-1.354-1.354c-0.041-0.125-0.078-0.313-0.074-0.564c0.504-0.873,0.887-1.795,1.148-2.744
	c0.237-0.277,0.453-0.423,0.596-0.492h1.896c0.391,0,0.707-0.315,0.707-0.707v-3.938C116.591,94.292,116.505,94.109,116.368,93.98z
	 M105.021,99.451c-1.123,1.123-2.703,1.507-4.142,1.152c-0.729-0.188-1.424-0.568-1.997-1.143c-0.021-0.021-0.044-0.045-0.064-0.066
	c-0.006-0.006-0.012-0.014-0.02-0.021c-0.021-0.024-0.047-0.05-0.068-0.075c-0.004-0.004-0.008-0.008-0.013-0.012
	c-0.038-0.045-0.077-0.092-0.116-0.139c-0.014-0.014-0.024-0.029-0.037-0.045c-0.024-0.029-0.049-0.062-0.071-0.092
	c-0.019-0.021-0.035-0.045-0.052-0.07c-0.014-0.02-0.028-0.039-0.043-0.06c-0.021-0.028-0.039-0.056-0.059-0.084
	c-0.015-0.022-0.027-0.044-0.043-0.065c-0.02-0.027-0.035-0.057-0.053-0.084c-0.012-0.017-0.021-0.031-0.029-0.047
	c-0.021-0.039-0.046-0.08-0.066-0.119c-0.008-0.014-0.017-0.026-0.022-0.041c-0.021-0.039-0.041-0.075-0.06-0.113
	c-0.004-0.008-0.008-0.014-0.01-0.021c-0.022-0.045-0.043-0.09-0.064-0.136c-0.006-0.01-0.01-0.021-0.014-0.03
	c-0.021-0.047-0.041-0.094-0.061-0.141c-0.002-0.005-0.004-0.012-0.006-0.016c-0.02-0.049-0.037-0.096-0.057-0.146
	c0-0.003-0.002-0.005-0.002-0.009c-0.019-0.052-0.035-0.103-0.051-0.154c-0.002-0.004-0.004-0.008-0.005-0.013
	c-0.149-0.487-0.213-0.997-0.188-1.503c0-0.003,0-0.007,0-0.009c0.002-0.045,0.006-0.088,0.01-0.131
	c0.002-0.027,0.005-0.055,0.007-0.084c0-0.004,0.001-0.01,0.001-0.014c0.005-0.044,0.012-0.088,0.018-0.131
	c0.131-0.898,0.541-1.766,1.232-2.458c1.016-1.015,2.404-1.427,3.725-1.235c0.008,0.002,0.017,0.004,0.023,0.004
	c0.025,0.004,0.055,0.01,0.082,0.015c0.175,0.03,0.35,0.071,0.518,0.124c0.006,0.002,0.014,0.004,0.02,0.006
	c0.025,0.008,0.053,0.018,0.078,0.025c0.619,0.207,1.201,0.559,1.693,1.051c0.213,0.214,0.398,0.443,0.56,0.687
	c0.446,0.687,0.708,1.505,0.708,2.386c0,0.791-0.211,1.535-0.58,2.176C105.52,98.885,105.292,99.182,105.021,99.451z" class="wHDpWHyO_2"></path>
<style>.wHDpWHyO_0{stroke-dasharray:428 430;stroke-dashoffset:429;animation:wHDpWHyO_draw_0 12900ms linear 0ms infinite,wHDpWHyO_fade 12900ms linear 0ms infinite;}.wHDpWHyO_1{stroke-dasharray:143 145;stroke-dashoffset:144;animation:wHDpWHyO_draw_1 12900ms linear 0ms infinite,wHDpWHyO_fade 12900ms linear 0ms infinite;}.wHDpWHyO_2{stroke-dasharray:143 145;stroke-dashoffset:144;animation:wHDpWHyO_draw_2 12900ms linear 0ms infinite,wHDpWHyO_fade 12900ms linear 0ms infinite;}@keyframes wHDpWHyO_draw{100%{stroke-dashoffset:0;}}@keyframes wHDpWHyO_fade{0%{stroke-opacity:1;}96.89922480620154%{stroke-opacity:1;}100%{stroke-opacity:0;}}@keyframes wHDpWHyO_draw_0{0.7751937984496124%{stroke-dashoffset: 429}18.346253229974163%{ stroke-dashoffset: 0;}100%{ stroke-dashoffset: 0;}}@keyframes wHDpWHyO_draw_1{5.167958656330749%{stroke-dashoffset: 144}22.739018087855296%{ stroke-dashoffset: 0;}100%{ stroke-dashoffset: 0;}}@keyframes wHDpWHyO_draw_2{9.560723514211885%{stroke-dashoffset: 144}27.131782945736433%{ stroke-dashoffset: 0;}100%{ stroke-dashoffset: 0;}}</style></svg>
