<?xml version="1.0" encoding="utf-8"?>
<!-- Generator: Adobe Illustrator 16.0.0, SVG Export Plug-In . SVG Version: 6.00 Build 0)  -->
<!DOCTYPE svg PUBLIC "-//W3C//DTD SVG 1.1//EN" "http://www.w3.org/Graphics/SVG/1.1/DTD/svg11.dtd">
<svg version="1.1" id="Layer_1" xmlns="http://www.w3.org/2000/svg" xmlns:xlink="http://www.w3.org/1999/xlink" x="0px" y="0px"
	 width="24px" height="24px" viewBox="0 0 24 24" enable-background="new 0 0 24 24" xml:space="preserve">
<circle fill="none" stroke="#FFFFFF" stroke-miterlimit="10" cx="12" cy="12" r="10.525"/>
<path fill="none" stroke="#FFFFFF" stroke-miterlimit="10" d="M9.005,14.098c0.677,0.366,1.198,0.635,1.574,0.635
	c0.374,0,0.822-0.485,0.934-0.336c0.112,0.149,0.221,0.377,0.487,0.336c0.266-0.039,0.748-0.226,0.748,0.299
	c0,0.525-0.263,0.974-0.263,0.974l0.826,0.749c0,0,0.336-0.458,0,0.387c-0.338,0.846-0.338,0.846-0.338,0.846l0.486,1.125
	c0,0-0.223,0.338,0.148,0.445c0.375,0.112,0.377,0.825,0.75,0.603c0.373-0.226,1.459-1.16,1.459-1.16l0.861-0.265
	c0,0,0.146-0.937,0.375-1.01c0.223-0.074,0.633-0.584,0.633-0.584s-0.524-0.875,0-1.623s1.029-2.021,1.189-2.174
	c0.16-0.148,0.198-0.673,0.198-0.673s-0.9,0.375-1.386-0.224c-0.485-0.598-1.795-2.395-1.795-2.395s0.188-0.487,0.075-0.487
	c-0.112,0,0.714,0.786,0.714,0.786l0.858,1.198c0,0,0,0.263,0.448,0.6c0.447,0.337,0.972-0.45,1.084-0.487
	c0.111-0.036,0.746-1.047,0.746-1.047l-0.946-0.524c0,0-1.337-0.486-0.735-0.524c0.6-0.038,1.16,0.374,1.426,0.336
	c0.262-0.038,0.035-0.68,0.56-0.34s1.235-0.782,1.235,0.827c0,1.608,0.6,3.629,0.6,3.629S22.502,4.042,16.525,2.7
	C10.551,1.359,9.27,2.456,9.27,2.456S6.65,3.131,5.677,4.142C4.704,5.153,4.444,6.05,4.444,6.05s1.232-0.076,1.645-0.487
	s0.786-0.375,1.01-0.636c0.226-0.263,0.524-0.524,0.75-0.598c0.222-0.075,1.383-0.673,1.607-0.673c0.223,0-0.525,0.411-0.56,0.524
	c-0.037,0.111,0.898-0.113,1.311-0.225c0.415-0.112,0.859,0.036,1.497-0.299c0.637-0.337,1.349-0.374,1.76-0.374
	c0.412,0,2.433,0.298,2.021,0.71c-0.414,0.413-1.125,0.86-1.348,0.786c-0.225-0.074-0.389-0.898-0.886-0.411
	c-0.499,0.487-0.801,0.974-0.801,0.974s-0.186,0.337,0.077,0.337c0.262,0,0.486-0.036,0.486-0.036l0.411-0.599
	c0,0,0.078-0.599,0.339-0.188c0.26,0.411,0.635,0.186,0.446,0.486c-0.188,0.3,0.299,0.75-0.299,0.825
	c-0.599,0.073-0.787,0.112-1.238,0.112c-0.446,0-0.971,0.524-1.083,0.6c-0.113,0.075-0.376,0.263-0.337,0.449
	c0.038,0.187,0.337,0.561-0.112,0.598c-0.448,0.038-0.633,0-0.633,0S9.76,8.336,10.059,8.6c0.299,0.263,0.524,0.187,0.899,0
	s0.557-0.561,1.046-0.637c0.49-0.074,0.378-0.523,0.674-0.186c0.303,0.337,0.813,0.112,0.573,0.637
	c-0.237,0.524,0.188,1.197,0.212,0.337c0.021-0.86-0.486-1.422-0.486-1.422s0.789-0.074,0.937,0.449
	c0.147,0.523,0.485,0.673,0.485,0.673s0.076-0.411,0.188-0.337c0.112,0.074,1.237,0.561,1.425,0.561c0.186,0,0.896,0.71,0.428,0.804
	c-0.467,0.094-1.123,0.421-1.485,0.309c-0.363-0.112-0.562-0.309-0.616-0.112c-0.056,0.196-0.029,0.477-0.393,0.365
	c-0.365-0.113-1.235-0.617-1.235-0.87s-0.253-0.169-0.479-0.169c-0.224,0-1.684,0.169-1.881,0.169c-0.197,0-0.59,0.309-0.561,0.477
	c0.029,0.168-0.323,0.411-0.323,0.411L8.564,10.62l-0.261,0.56c0,0,0.297,0.561,0,0.822c-0.3,0.263,0,1.387,0,1.387
	S8.687,13.923,9.005,14.098z"/>
</svg>
