<!--?xml version="1.0" encoding="utf-8"?-->
<!-- Generator: Adobe Illustrator 16.0.0, SVG Export Plug-In . SVG Version: 6.00 Build 0)  -->

<svg version="1.1" id="Layer_1" xmlns="http://www.w3.org/2000/svg" xmlns:xlink="http://www.w3.org/1999/xlink" x="0px" y="0px" width="125px" height="118px" viewBox="0 0 125 118" enable-background="new 0 0 125 118" xml:space="preserve">
<g>
	<path fill="none" stroke="#FFFFFF" stroke-width="2" stroke-miterlimit="10" d="M110.359,95.973
		c-5.311-17.623-31.742-20.881-31.742-20.881c1.086,19.674-16.777,29.57-16.777,29.57c-17.984-10.5-16.535-29.57-16.535-29.57
		s-28.967,4.346-31.381,21.363v8.689c0,0,0.604,4.226,8.69,4.226c8.086,0,68.074,0,68.074,0" class="LCmCHyER_0"></path>
	<path fill="#FDFFFD" d="M55.142,93.618L61.78,99.773L68.539,93.618L62.866,82.514L67.693,77.505L64.979,73.824L
		59.125,73.824L56.53,77.324L61.116,82.454Z" class="LCmCHyER_1"></path>
	<path fill="none" stroke="#FFFFFF" stroke-width="2" stroke-miterlimit="10" d="M82.882,36.911c0,0,3.339-13.961,0.081-20.237
		c0,0-3.902-12.754-20.82-12.432c-16.918-0.322-20.82,12.432-20.82,12.432c-3.259,6.276,0.081,20.237,0.081,20.237
		c-4.828-1.609-4.426,3.621-3.46,8.127c0.966,4.505,3.138,4.425,3.138,4.425c4.908,18.266,21.062,19.15,21.062,19.15
		s16.153-0.885,21.062-19.15c0,0,2.172,0.08,3.138-4.425C87.307,40.532,87.709,35.302,82.882,36.911z" class="LCmCHyER_2"></path>
	<path fill="none" stroke="#FFFFFF" stroke-width="2" stroke-miterlimit="10" d="M93.102,86.799L97.205,110.455L
		101.791,104.783L107.945,116.007L110.964,113.956L104.566,103.213L111.566,101.402Z" class="LCmCHyER_3"></path>
	<path fill="#FDFFFD" d="M42.65,25.244c0,0-0.764-17.943,18.869-18.507c0,0,22.53-1.609,20.196,22.933
		c0,0-19.151,2.977-30.014-15.771C51.702,13.898,48.685,14.784,42.65,25.244z" class="LCmCHyER_4"></path>
</g>
<style>.LCmCHyER_0{stroke-dasharray:239 241;stroke-dashoffset:240;animation:LCmCHyER_draw_0 12900ms linear 0ms infinite,LCmCHyER_fade 12900ms linear 0ms infinite;}.LCmCHyER_1{stroke-dasharray:72 74;stroke-dashoffset:73;animation:LCmCHyER_draw_1 12900ms linear 0ms infinite,LCmCHyER_fade 12900ms linear 0ms infinite;}.LCmCHyER_2{stroke-dasharray:189 191;stroke-dashoffset:190;animation:LCmCHyER_draw_2 12900ms linear 0ms infinite,LCmCHyER_fade 12900ms linear 0ms infinite;}.LCmCHyER_3{stroke-dasharray:92 94;stroke-dashoffset:93;animation:LCmCHyER_draw_3 12900ms linear 0ms infinite,LCmCHyER_fade 12900ms linear 0ms infinite;}.LCmCHyER_4{stroke-dasharray:116 118;stroke-dashoffset:117;animation:LCmCHyER_draw_4 12900ms linear 0ms infinite,LCmCHyER_fade 12900ms linear 0ms infinite;}@keyframes LCmCHyER_draw{100%{stroke-dashoffset:0;}}@keyframes LCmCHyER_fade{0%{stroke-opacity:1;}96.89922480620154%{stroke-opacity:1;}100%{stroke-opacity:0;}}@keyframes LCmCHyER_draw_0{0.7751937984496124%{stroke-dashoffset: 240}18.346253229974163%{ stroke-dashoffset: 0;}100%{ stroke-dashoffset: 0;}}@keyframes LCmCHyER_draw_1{2.9715762273901807%{stroke-dashoffset: 73}20.542635658914733%{ stroke-dashoffset: 0;}100%{ stroke-dashoffset: 0;}}@keyframes LCmCHyER_draw_2{5.167958656330749%{stroke-dashoffset: 190}22.739018087855296%{ stroke-dashoffset: 0;}100%{ stroke-dashoffset: 0;}}@keyframes LCmCHyER_draw_3{7.3643410852713185%{stroke-dashoffset: 93}24.93540051679587%{ stroke-dashoffset: 0;}100%{ stroke-dashoffset: 0;}}@keyframes LCmCHyER_draw_4{9.560723514211885%{stroke-dashoffset: 117}27.131782945736433%{ stroke-dashoffset: 0;}100%{ stroke-dashoffset: 0;}}</style></svg>
