<?xml version="1.0" encoding="utf-8"?>
<!-- Generator: Adobe Illustrator 16.0.0, SVG Export Plug-In . SVG Version: 6.00 Build 0)  -->
<!DOCTYPE svg PUBLIC "-//W3C//DTD SVG 1.1//EN" "http://www.w3.org/Graphics/SVG/1.1/DTD/svg11.dtd">
<svg version="1.1" id="Layer_1" xmlns="http://www.w3.org/2000/svg" xmlns:xlink="http://www.w3.org/1999/xlink" x="0px" y="0px"
	 width="125px" height="118px" viewBox="0 0 125 118" enable-background="new 0 0 125 118" xml:space="preserve">
<g>
	<polyline fill="none" stroke="#FFFFFF" stroke-width="2" stroke-miterlimit="10" points="20.717,8.761 20.717,13.594 
		62.884,13.594 62.884,8.761 	"/>
	<path fill="none" stroke="#FFFFFF" stroke-width="2" stroke-miterlimit="10" d="M42.217,89.928c0,0-13.5-39.166-28.25-47.083
		c0,0,12.667-5.5,12.667-20.75h31.167c0,0-0.417,19.751,13.583,19.834C71.384,41.929,53.551,54.928,42.217,89.928z"/>
	<line fill="none" stroke="#FFFFFF" stroke-width="2" stroke-miterlimit="10" x1="42.382" y1="89.426" x2="42.382" y2="50.136"/>
	<circle fill="none" stroke="#FFFFFF" stroke-width="2" stroke-miterlimit="10" cx="42.382" cy="43.446" r="7.084"/>
	<path fill="none" stroke="#FFFFFF" stroke-width="2" stroke-miterlimit="10" d="M104.217,47.927c0,0,6.333,52.167-55.833,55.167
		h56.015"/>
	
		<rect x="100.048" y="37.437" transform="matrix(-0.7071 -0.7071 0.7071 -0.7071 148.6664 145.1441)" fill="none" stroke="#FFFFFF" stroke-width="2" stroke-miterlimit="10" width="8.691" height="8.691"/>
	
		<rect x="38.326" y="98.745" transform="matrix(-0.7071 -0.7071 0.7071 -0.7071 -0.0508 206.1606)" fill="none" stroke="#FFFFFF" stroke-width="2" stroke-miterlimit="10" width="8.691" height="8.691"/>
	<circle fill="none" stroke="#FFFFFF" stroke-width="2" stroke-miterlimit="10" cx="109.663" cy="103.094" r="5.802"/>
</g>
</svg>
